<svg version="1.1" id="Layer_1" xmlns="http://www.w3.org/2000/svg" xmlns:xlink="http://www.w3.org/1999/xlink" x="0px" y="0px"
	 width="100%" viewBox="0 0 512 592" enable-background="new 0 0 512 592" xml:space="preserve">
<path fill="#0078BF" opacity="1.000000" stroke="none" 
	d="
M0.999999,446.000000 
	C1.000000,346.645782 1.000000,247.291550 1.294153,147.756500 
	C11.903375,141.639954 22.210087,135.689636 32.535423,129.771820 
	C48.956673,120.360237 65.419083,111.020119 81.810532,101.557022 
	C97.770126,92.343254 113.627808,82.952873 129.593369,73.749565 
	C148.261368,62.988468 167.030762,52.403214 185.695511,41.636566 
	C206.606186,29.574364 227.465424,17.422537 248.291977,5.215748 
	C250.073090,4.171813 251.440430,2.421932 253.000000,0.999996 
	C255.370560,1.000000 257.741119,1.000000 260.241516,1.276009 
	C263.408813,3.425205 266.405975,5.367655 269.490021,7.160746 
	C296.706848,22.984966 323.916718,38.821491 351.176270,54.571915 
	C365.023926,62.572998 379.022095,70.313965 392.857483,78.335869 
	C410.635406,88.643639 428.291840,99.160774 446.049133,109.504410 
	C465.071442,120.584908 484.125977,131.610718 503.228516,142.552094 
	C506.320496,144.323090 509.734711,145.531525 513.000000,147.000000 
	C513.000000,246.354233 513.000000,345.708466 512.635437,445.572693 
	C510.786285,446.743225 509.227325,447.274963 507.828247,448.083466 
	C484.800537,461.391113 461.788147,474.725250 438.782104,488.070312 
	C411.264648,504.032349 383.799774,520.085632 356.232513,535.961121 
	C326.530609,553.065918 296.715149,569.973694 267.020050,587.090210 
	C264.411285,588.593994 262.327576,591.008484 260.000000,593.000000 
	C258.611115,593.000000 257.222229,593.000000 255.695160,592.703003 
	C254.512741,591.643433 253.530136,590.773315 252.414932,590.134705 
	C236.268890,580.887939 220.080353,571.715149 203.952454,562.436951 
	C187.545166,552.998108 171.204559,543.443420 154.814224,533.974976 
	C138.841141,524.747620 122.825356,515.594177 106.859009,506.355286 
	C90.612778,496.954437 74.410088,487.478424 58.176880,478.055023 
	C45.755726,470.844543 33.364857,463.579773 20.866051,456.506042 
	C14.349365,452.817932 7.628589,449.490387 0.999999,446.000000 
M463.599670,137.614151 
	C463.084259,137.379074 462.568817,137.144012 461.578094,136.408279 
	C457.740540,134.247192 453.902954,132.086121 449.544464,129.486298 
	C443.103912,125.932571 436.663391,122.378845 429.783508,118.305199 
	C418.551819,111.822731 407.320099,105.340271 395.558350,98.439995 
	C380.716675,89.942673 365.875031,81.445351 350.530212,72.499100 
	C345.238464,69.361282 339.964172,66.193642 334.652008,63.090748 
	C310.080017,48.737862 285.483276,34.427227 260.938477,20.028048 
	C258.164734,18.400843 255.886826,18.451015 253.104980,20.146084 
	C245.715576,24.648703 238.136612,28.839462 230.649887,33.183315 
	C207.764954,46.461315 184.887939,59.752968 161.370270,73.307297 
	C158.479263,74.926613 155.551453,76.483955 152.703613,78.175911 
	C140.036118,85.701927 127.391533,93.266487 114.067009,100.974907 
	C103.381943,106.998924 92.696869,113.022942 81.415314,119.372261 
	C74.941635,123.244881 68.467957,127.117500 61.325214,131.188675 
	C57.543907,133.451340 53.762600,135.714005 49.311234,138.180099 
	C39.907455,143.538040 30.590906,149.058472 21.057961,154.175766 
	C17.117203,156.291168 15.901424,159.042664 15.906348,163.374451 
	C16.007311,252.192169 16.008108,341.010071 15.905123,429.827789 
	C15.900057,434.197327 17.307337,436.892517 21.109947,439.070709 
	C49.147346,455.130737 77.087227,471.360901 105.072090,487.512756 
	C153.828552,515.653320 202.628067,543.719666 251.299423,572.006592 
	C255.478333,574.435242 258.676727,574.506775 262.750946,572.136963 
	C298.599457,551.285217 334.517731,530.553345 370.437347,509.824066 
	C410.107208,486.930511 449.727203,463.948456 489.558624,441.339142 
	C495.845367,437.770599 498.219330,433.805389 498.194641,426.442566 
	C497.913269,342.458160 498.016113,258.472473 498.014771,174.487106 
	C498.014709,169.987946 498.176239,165.477997 497.901123,160.995255 
	C497.799713,159.343079 497.113953,156.963440 495.910278,156.262283 
	C485.712921,150.322128 475.334198,144.693329 464.708405,138.618561 
	C464.499512,138.389648 464.275940,138.176117 463.599670,137.614151 
z"/>
<path fill="#000000" opacity="1.000000" stroke="none" 
	d="
M0.999999,446.468658 
	C7.628589,449.490387 14.349365,452.817932 20.866051,456.506042 
	C33.364857,463.579773 45.755726,470.844543 58.176880,478.055023 
	C74.410088,487.478424 90.612778,496.954437 106.859009,506.355286 
	C122.825356,515.594177 138.841141,524.747620 154.814224,533.974976 
	C171.204559,543.443420 187.545166,552.998108 203.952454,562.436951 
	C220.080353,571.715149 236.268890,580.887939 252.414932,590.134705 
	C253.530136,590.773315 254.512741,591.643433 255.278503,592.703003 
	C170.425781,593.000000 85.851570,593.000000 1.000000,593.000000 
	C1.000000,544.312805 1.000000,495.625061 0.999999,446.468658 
z"/>
<path fill="#000000" opacity="1.000000" stroke="none" 
	d="
M260.468658,593.000000 
	C262.327576,591.008484 264.411285,588.593994 267.020050,587.090210 
	C296.715149,569.973694 326.530609,553.065918 356.232513,535.961121 
	C383.799774,520.085632 411.264648,504.032349 438.782104,488.070312 
	C461.788147,474.725250 484.800537,461.391113 507.828247,448.083466 
	C509.227325,447.274963 510.786285,446.743225 512.635437,446.041382 
	C513.000000,494.946381 513.000000,543.892761 513.000000,593.000000 
	C428.979187,593.000000 344.958252,593.000000 260.468658,593.000000 
z"/>
<path fill="#000000" opacity="1.000000" stroke="none" 
	d="
M252.531342,0.999996 
	C251.440430,2.421932 250.073090,4.171813 248.291977,5.215748 
	C227.465424,17.422537 206.606186,29.574364 185.695511,41.636566 
	C167.030762,52.403214 148.261368,62.988468 129.593369,73.749565 
	C113.627808,82.952873 97.770126,92.343254 81.810532,101.557022 
	C65.419083,111.020119 48.956673,120.360237 32.535423,129.771820 
	C22.210087,135.689636 11.903375,141.639954 1.294153,147.287842 
	C1.000000,98.386879 1.000000,49.773750 1.000000,1.000000 
	C84.687492,1.000000 168.375092,1.000000 252.531342,0.999996 
z"/>
<path fill="#000000" opacity="1.000000" stroke="none" 
	d="
M513.000000,146.531342 
	C509.734711,145.531525 506.320496,144.323090 503.228516,142.552094 
	C484.125977,131.610718 465.071442,120.584908 446.049133,109.504410 
	C428.291840,99.160774 410.635406,88.643639 392.857483,78.335869 
	C379.022095,70.313965 365.023926,62.572998 351.176270,54.571915 
	C323.916718,38.821491 296.706848,22.984966 269.490021,7.160746 
	C266.405975,5.367655 263.408813,3.425205 260.685669,1.276009 
	C344.907593,1.000000 428.815186,1.000000 513.000000,1.000000 
	C513.000000,49.353874 513.000000,97.708282 513.000000,146.531342 
z"/>
<path fill="#0188DA" opacity="1.000000" stroke="none" 
	d="
M465.009888,138.971100 
	C475.334198,144.693329 485.712921,150.322128 495.910278,156.262283 
	C497.113953,156.963440 497.799713,159.343079 497.901123,160.995255 
	C498.176239,165.477997 498.014709,169.987946 498.014771,174.487106 
	C498.016113,258.472473 497.913269,342.458160 498.194641,426.442566 
	C498.219330,433.805389 495.845367,437.770599 489.558624,441.339142 
	C449.727203,463.948456 410.107208,486.930511 370.437347,509.824066 
	C334.517731,530.553345 298.599457,551.285217 262.750946,572.136963 
	C258.676727,574.506775 255.478333,574.435242 251.299423,572.006592 
	C202.628067,543.719666 153.828552,515.653320 105.072090,487.512756 
	C77.087227,471.360901 49.147346,455.130737 21.109947,439.070709 
	C17.307337,436.892517 15.900057,434.197327 15.905123,429.827789 
	C16.008108,341.010071 16.007311,252.192169 15.906348,163.374451 
	C15.901424,159.042664 17.117203,156.291168 21.057961,154.175766 
	C30.590906,149.058472 39.907455,143.538040 49.657021,138.334167 
	C50.010235,138.658630 50.017658,138.828995 50.202316,139.283615 
	C52.917076,142.713013 55.454601,145.858139 58.091007,149.330963 
	C61.791889,153.773224 65.393890,157.887787 69.181564,162.277893 
	C73.910484,166.943253 78.321831,171.480927 83.032349,175.683228 
	C88.228851,180.319077 93.699860,184.647217 98.985893,189.448181 
	C96.711037,193.490326 94.243217,197.066162 92.340591,200.920959 
	C86.652733,212.444763 86.743408,224.079941 92.779419,235.424911 
	C95.267494,240.101379 98.235741,244.573257 101.405533,248.825089 
	C107.273209,256.695740 113.954552,263.999664 119.384964,272.147461 
	C128.512451,285.842346 125.827805,299.905975 112.954056,310.119415 
	C106.870888,314.945587 100.858017,315.097168 94.716766,310.302856 
	C88.276382,305.274994 84.645172,298.484344 82.992584,290.564514 
	C82.245560,286.984528 81.778610,283.314880 80.671997,279.849640 
	C79.500084,276.179871 77.035286,275.593964 74.266991,278.306061 
	C67.888687,284.554901 63.671177,291.910126 66.243156,301.128052 
	C68.813011,310.338348 74.493019,317.289398 84.271317,319.279694 
	C95.182732,321.500641 106.129196,321.097778 116.762672,317.296234 
	C141.371124,308.498505 151.737808,282.107178 138.952194,259.497742 
	C134.646790,251.884262 128.624680,245.257217 123.617889,238.019730 
	C119.667320,232.309052 115.336853,226.685410 112.504776,220.421890 
	C109.079842,212.847168 108.379478,204.675873 113.255501,197.147614 
	C122.790001,200.861420 132.046143,204.372040 141.519836,208.117554 
	C143.350922,212.208633 146.122833,212.154373 148.760834,209.875610 
	C151.949615,207.121078 154.712692,203.873749 158.068512,201.000351 
	C160.554337,201.439758 162.630310,201.729187 164.709320,201.994858 
	C168.190643,202.439758 171.673889,202.869492 175.154022,203.681305 
	C173.325211,209.897186 171.259491,215.674789 169.712448,221.588074 
	C161.838730,251.684433 154.093231,281.814362 146.335037,311.940857 
	C146.027954,313.133331 146.047668,314.409943 145.860352,316.158539 
	C152.424377,315.691071 158.512909,315.257446 164.593414,314.824371 
	C165.102509,312.681763 165.491486,310.902161 165.949280,309.140472 
	C169.669678,294.823730 173.004593,280.390442 177.265213,266.235931 
	C180.367859,255.928421 186.566772,247.435654 196.331451,242.170563 
	C198.086517,241.224243 200.312607,241.151474 202.321228,240.675354 
	C202.653702,242.841034 203.667068,245.167252 203.200821,247.144592 
	C201.178802,255.719894 198.458282,264.132446 196.496658,272.719513 
	C194.126831,283.093475 191.556549,293.553009 193.918015,304.314758 
	C195.583038,311.902710 201.081055,315.280579 208.465363,312.936523 
	C211.530960,311.963409 214.861572,310.298889 216.908295,307.939575 
	C222.224716,301.811188 226.921936,295.142670 231.805267,288.643860 
	C232.913055,287.169586 233.773361,285.509369 235.324997,283.001465 
	C235.988861,288.589874 236.126434,292.895355 237.066895,297.017731 
	C239.101761,305.936981 246.317062,309.209381 254.183533,304.416962 
	C258.360168,301.872437 261.898560,298.140778 265.339813,294.573334 
	C268.042877,291.771179 270.154938,288.398865 272.529541,285.279816 
	C272.753174,285.381653 272.976807,285.483521 273.200439,285.585358 
	C272.404877,289.902252 271.609314,294.219177 270.675354,299.287109 
	C277.610962,298.814819 283.813293,298.392456 290.070679,297.966370 
	C290.783203,294.337891 291.397827,291.242828 291.998169,288.145020 
	C295.454895,270.307404 299.170471,252.551453 308.266632,236.490402 
	C311.351868,231.042847 314.872131,225.899277 321.166595,223.913300 
	C323.341370,223.227173 326.453033,222.974884 328.112305,224.072739 
	C329.238800,224.818100 329.106323,228.380188 328.628082,230.475174 
	C326.777649,238.581512 324.012207,246.510941 322.621490,254.682236 
	C320.845795,265.115845 319.156952,275.719055 319.149445,286.250366 
	C319.143372,294.852936 326.915558,298.743713 335.038330,295.445953 
	C337.454834,294.464874 340.039948,293.094574 341.685425,291.166626 
	C347.060791,284.868622 352.059692,278.247681 357.151215,271.710327 
	C358.179535,270.389984 358.979431,268.891724 360.315887,266.800842 
	C361.028595,271.508423 361.240051,275.172272 362.178772,278.639130 
	C364.203857,286.117828 369.449768,289.617004 376.868469,287.610382 
	C381.175232,286.445526 385.520752,284.063629 388.889984,281.128632 
	C393.348755,277.244476 396.869354,272.283356 400.973602,267.960938 
	C401.276459,268.251709 401.398895,268.366638 401.452606,268.854614 
	C399.681183,274.793701 398.215332,280.450531 396.137054,285.872620 
	C395.480804,287.584717 393.389404,289.430817 391.605438,289.907318 
	C384.224854,291.878601 376.622070,293.032043 369.267487,295.083191 
	C360.258179,297.595856 351.471069,300.908478 344.714508,307.791046 
	C338.192932,314.434204 339.028412,322.409454 347.176605,326.885254 
	C351.260101,329.128235 356.204834,330.694550 360.833801,330.899170 
	C381.036163,331.792297 395.698395,321.552368 405.734375,305.199982 
	C411.176208,296.333191 417.302826,289.304565 426.218872,283.904419 
	C434.140808,279.106384 440.978729,272.541138 448.474731,266.998871 
	C450.021027,265.855591 452.360718,265.785400 454.334747,265.220612 
	C454.340668,267.423584 455.016815,269.901642 454.243774,271.784882 
	C449.214905,284.036041 442.459900,295.262817 433.448700,305.063049 
	C414.962189,325.168213 391.391449,336.520203 365.472565,342.841888 
	C339.517059,349.172546 312.796051,350.490051 286.188171,351.956604 
	C242.456894,354.366943 198.653732,355.826050 155.004227,359.255981 
	C119.486504,362.046936 85.199631,371.140472 52.592598,385.899139 
	C49.391178,387.348175 46.251827,388.934357 43.083660,390.456879 
	C88.143501,393.007141 122.429642,413.330658 146.842804,449.551025 
	C151.312683,441.070709 155.017502,432.259247 160.248154,424.472717 
	C172.881668,405.666046 191.457047,394.335876 212.033005,386.101685 
	C245.177032,372.837891 280.173035,368.304657 315.364258,365.069427 
	C339.793243,362.823608 364.015411,359.842957 387.142303,351.042633 
	C413.471710,341.023621 436.826752,326.846588 453.401123,303.343658 
	C464.248810,287.961304 469.836334,270.759430 470.203247,251.922089 
	C470.330017,245.414108 467.562561,243.519150 461.858459,246.609879 
	C457.799011,248.809402 453.967896,251.605225 450.477722,254.643631 
	C443.447144,260.764160 436.860168,267.395477 429.808044,273.489563 
	C426.058502,276.729706 421.718933,279.287079 416.605103,282.884735 
	C417.097015,280.207001 417.205994,279.060089 417.522217,277.973450 
	C424.889496,252.652939 427.601898,225.839417 442.010529,202.051178 
	C436.688080,202.740738 431.788757,203.444962 426.871887,203.990814 
	C422.821594,204.440445 419.573181,206.245941 417.971741,209.955902 
	C413.899384,219.390228 408.924011,228.653717 406.503479,238.523529 
	C403.824158,249.448654 397.186371,257.674469 391.512695,266.659943 
	C390.238556,268.677765 388.308746,270.409149 386.368896,271.853485 
	C381.838654,275.226562 378.927887,274.043945 379.149902,268.421051 
	C379.444763,260.953003 380.154785,253.381088 381.844360,246.123352 
	C383.431305,239.306503 386.144562,232.666763 389.067474,226.271408 
	C391.671387,220.574097 395.256897,215.327240 398.366730,209.857437 
	C398.861084,208.987946 399.702271,207.590332 399.384735,207.138443 
	C398.760437,206.250015 397.455658,205.400055 396.394653,205.350952 
	C394.276978,205.252975 392.133820,205.706268 390.102966,205.624054 
	C391.137329,203.878036 392.069885,202.439819 393.365967,200.957809 
	C400.153412,196.943024 406.577301,192.972046 413.342194,188.913300 
	C421.456665,182.550888 429.230164,176.276230 437.296570,169.842422 
	C441.392120,165.788437 445.194733,161.893600 449.239990,157.770691 
	C452.320496,154.028259 455.158356,150.513916 458.178894,146.728088 
	C459.904633,144.636948 461.447723,142.817276 463.260864,140.874542 
	C464.023865,140.158020 464.516876,139.564560 465.009888,138.971100 
z"/>
<path fill="#1793DD" opacity="1.000000" stroke="none" 
	d="
M114.738663,100.817108 
	C127.391533,93.266487 140.036118,85.701927 152.703613,78.175911 
	C155.551453,76.483955 158.479263,74.926613 161.764343,73.529541 
	C165.050659,74.833725 167.945312,76.864807 170.834778,76.857414 
	C228.225143,76.710770 285.615265,76.368805 343.003662,75.866486 
	C345.688538,75.842987 348.357178,73.963257 351.033356,72.948021 
	C365.875031,81.445351 380.716675,89.942673 395.647766,98.992447 
	C392.850128,100.363113 389.964325,101.890839 387.075806,101.895889 
	C312.124878,102.027023 237.173630,101.999115 162.222443,102.003746 
	C160.057816,102.003883 157.892578,102.036270 155.728653,102.092667 
	C144.591553,102.382950 133.455444,102.827736 122.317474,102.876671 
	C119.794266,102.887756 117.265091,101.539604 114.738663,100.817108 
z"/>
<path fill="#1491DD" opacity="1.000000" stroke="none" 
	d="
M114.402832,100.896011 
	C117.265091,101.539604 119.794266,102.887756 122.317474,102.876671 
	C133.455444,102.827736 144.591553,102.382950 155.728653,102.092667 
	C157.892578,102.036270 160.057816,102.003883 162.222443,102.003746 
	C237.173630,101.999115 312.124878,102.027023 387.075806,101.895889 
	C389.964325,101.890839 392.850128,100.363113 395.912811,99.201355 
	C407.320099,105.340271 418.551819,111.822731 429.684143,118.829666 
	C426.718750,119.902740 423.853210,120.927383 420.986542,120.930534 
	C342.182617,121.017265 263.378540,120.968658 184.574570,121.041687 
	C175.267273,121.050316 165.961823,121.846970 156.653244,121.903732 
	C133.496292,122.044930 110.337524,122.032455 87.181229,121.854866 
	C85.451004,121.841599 83.734612,120.025146 82.011795,119.046951 
	C92.696869,113.022942 103.381943,106.998924 114.402832,100.896011 
z"/>
<path fill="#1C95DE" opacity="1.000000" stroke="none" 
	d="
M350.781799,72.723557 
	C348.357178,73.963257 345.688538,75.842987 343.003662,75.866486 
	C285.615265,76.368805 228.225143,76.710770 170.834778,76.857414 
	C167.945312,76.864807 165.050659,74.833725 162.083130,73.395546 
	C184.887939,59.752968 207.764954,46.461315 230.649887,33.183315 
	C238.136612,28.839462 245.715576,24.648703 253.104980,20.146084 
	C255.886826,18.451015 258.164734,18.400843 260.938477,20.028048 
	C285.483276,34.427227 310.080017,48.737862 334.652008,63.090748 
	C339.964172,66.193642 345.238464,69.361282 350.781799,72.723557 
z"/>
<path fill="#1190DC" opacity="1.000000" stroke="none" 
	d="
M81.713554,119.209610 
	C83.734612,120.025146 85.451004,121.841599 87.181229,121.854866 
	C110.337524,122.032455 133.496292,122.044930 156.653244,121.903732 
	C165.961823,121.846970 175.267273,121.050316 184.574570,121.041687 
	C263.378540,120.968658 342.182617,121.017265 420.986542,120.930534 
	C423.853210,120.927383 426.718750,119.902740 429.903809,119.089630 
	C436.663391,122.378845 443.103912,125.932571 449.536530,129.995453 
	C447.822632,130.999649 446.125824,131.889236 444.409271,131.929184 
	C425.782074,132.362869 407.152069,132.929703 388.522217,132.954010 
	C306.750671,133.060699 224.978867,133.000031 143.207169,132.999969 
	C118.392540,132.999939 93.577614,133.051529 68.763763,132.912033 
	C66.503738,132.899323 64.250610,131.659882 61.994278,130.990112 
	C68.467957,127.117500 74.941635,123.244881 81.713554,119.209610 
z"/>
<path fill="#0F8FDC" opacity="1.000000" stroke="none" 
	d="
M57.992134,149.003265 
	C55.454601,145.858139 52.917076,142.713013 50.591240,139.328308 
	C55.875286,139.725815 60.950184,140.931610 66.019585,140.908920 
	C102.458839,140.745789 138.896530,140.125320 175.335587,140.044617 
	C244.762192,139.890839 314.189362,140.000122 383.616302,139.999908 
	C406.758606,139.999832 429.902161,140.110916 453.041779,139.861465 
	C456.055908,139.828979 459.050018,137.938705 462.053406,136.908936 
	C462.568817,137.144012 463.084259,137.379074 463.685303,138.088425 
	C463.510925,139.374329 463.250885,140.185959 462.990845,140.997604 
	C461.447723,142.817276 459.904633,144.636948 457.791931,146.778458 
	C454.658600,147.728607 452.108582,148.833817 449.528900,148.908020 
	C432.569183,149.395935 415.603271,149.940811 398.639008,149.954330 
	C288.055756,150.042450 177.472412,150.007324 66.889114,149.957809 
	C63.923313,149.956482 60.957790,149.335373 57.992134,149.003265 
z"/>
<path fill="#108FDC" opacity="1.000000" stroke="none" 
	d="
M461.815735,136.658600 
	C459.050018,137.938705 456.055908,139.828979 453.041779,139.861465 
	C429.902161,140.110916 406.758606,139.999832 383.616302,139.999908 
	C314.189362,140.000122 244.762192,139.890839 175.335587,140.044617 
	C138.896530,140.125320 102.458839,140.745789 66.019585,140.908920 
	C60.950184,140.931610 55.875286,139.725815 50.414009,139.044037 
	C50.017658,138.828995 50.010235,138.658630 49.992050,138.232452 
	C53.762600,135.714005 57.543907,133.451340 61.659744,131.089386 
	C64.250610,131.659882 66.503738,132.899323 68.763763,132.912033 
	C93.577614,133.051529 118.392540,132.999939 143.207169,132.999969 
	C224.978867,133.000031 306.750671,133.060699 388.522217,132.954010 
	C407.152069,132.929703 425.782074,132.362869 444.409271,131.929184 
	C446.125824,131.889236 447.822632,130.999649 449.796997,130.214813 
	C453.902954,132.086121 457.740540,134.247192 461.815735,136.658600 
z"/>
<path fill="#0188DA" opacity="1.000000" stroke="none" 
	d="
M463.260864,140.874542 
	C463.250885,140.185959 463.510925,139.374329 463.904327,138.270325 
	C464.275940,138.176117 464.499512,138.389648 464.859131,138.794830 
	C464.516876,139.564560 464.023865,140.158020 463.260864,140.874542 
z"/>
<path fill="#E3F1FB" opacity="1.000000" stroke="none" 
	d="
M390.001190,205.931885 
	C392.133820,205.706268 394.276978,205.252975 396.394653,205.350952 
	C397.455658,205.400055 398.760437,206.250015 399.384735,207.138443 
	C399.702271,207.590332 398.861084,208.987946 398.366730,209.857437 
	C395.256897,215.327240 391.671387,220.574097 389.067474,226.271408 
	C386.144562,232.666763 383.431305,239.306503 381.844360,246.123352 
	C380.154785,253.381088 379.444763,260.953003 379.149902,268.421051 
	C378.927887,274.043945 381.838654,275.226562 386.368896,271.853485 
	C388.308746,270.409149 390.238556,268.677765 391.512695,266.659943 
	C397.186371,257.674469 403.824158,249.448654 406.503479,238.523529 
	C408.924011,228.653717 413.899384,219.390228 417.971741,209.955902 
	C419.573181,206.245941 422.821594,204.440445 426.871887,203.990814 
	C431.788757,203.444962 436.688080,202.740738 442.010529,202.051178 
	C427.601898,225.839417 424.889496,252.652939 417.522217,277.973450 
	C417.205994,279.060089 417.097015,280.207001 416.605103,282.884735 
	C421.718933,279.287079 426.058502,276.729706 429.808044,273.489563 
	C436.860168,267.395477 443.447144,260.764160 450.477722,254.643631 
	C453.967896,251.605225 457.799011,248.809402 461.858459,246.609879 
	C467.562561,243.519150 470.330017,245.414108 470.203247,251.922089 
	C469.836334,270.759430 464.248810,287.961304 453.401123,303.343658 
	C436.826752,326.846588 413.471710,341.023621 387.142303,351.042633 
	C364.015411,359.842957 339.793243,362.823608 315.364258,365.069427 
	C280.173035,368.304657 245.177032,372.837891 212.033005,386.101685 
	C191.457047,394.335876 172.881668,405.666046 160.248154,424.472717 
	C155.017502,432.259247 151.312683,441.070709 146.842804,449.551025 
	C122.429642,413.330658 88.143501,393.007141 43.083660,390.456879 
	C46.251827,388.934357 49.391178,387.348175 52.592598,385.899139 
	C85.199631,371.140472 119.486504,362.046936 155.004227,359.255981 
	C198.653732,355.826050 242.456894,354.366943 286.188171,351.956604 
	C312.796051,350.490051 339.517059,349.172546 365.472565,342.841888 
	C391.391449,336.520203 414.962189,325.168213 433.448700,305.063049 
	C442.459900,295.262817 449.214905,284.036041 454.243774,271.784882 
	C455.016815,269.901642 454.340668,267.423584 454.334747,265.220612 
	C452.360718,265.785400 450.021027,265.855591 448.474731,266.998871 
	C440.978729,272.541138 434.140808,279.106384 426.218872,283.904419 
	C417.302826,289.304565 411.176208,296.333191 405.734375,305.199982 
	C395.698395,321.552368 381.036163,331.792297 360.833801,330.899170 
	C356.204834,330.694550 351.260101,329.128235 347.176605,326.885254 
	C339.028412,322.409454 338.192932,314.434204 344.714508,307.791046 
	C351.471069,300.908478 360.258179,297.595856 369.267487,295.083191 
	C376.622070,293.032043 384.224854,291.878601 391.605438,289.907318 
	C393.389404,289.430817 395.480804,287.584717 396.137054,285.872620 
	C398.215332,280.450531 399.681183,274.793701 401.547485,268.664734 
	C401.405151,267.996277 401.099152,267.890686 400.793182,267.785126 
	C396.869354,272.283356 393.348755,277.244476 388.889984,281.128632 
	C385.520752,284.063629 381.175232,286.445526 376.868469,287.610382 
	C369.449768,289.617004 364.203857,286.117828 362.178772,278.639130 
	C361.240051,275.172272 361.028595,271.508423 360.315887,266.800842 
	C358.979431,268.891724 358.179535,270.389984 357.151215,271.710327 
	C352.059692,278.247681 347.060791,284.868622 341.685425,291.166626 
	C340.039948,293.094574 337.454834,294.464874 335.038330,295.445953 
	C326.915558,298.743713 319.143372,294.852936 319.149445,286.250366 
	C319.156952,275.719055 320.845795,265.115845 322.621490,254.682236 
	C324.012207,246.510941 326.777649,238.581512 328.628082,230.475174 
	C329.106323,228.380188 329.238800,224.818100 328.112305,224.072739 
	C326.453033,222.974884 323.341370,223.227173 321.166595,223.913300 
	C314.872131,225.899277 311.351868,231.042847 308.266632,236.490402 
	C299.170471,252.551453 295.454895,270.307404 291.998169,288.145020 
	C291.397827,291.242828 290.783203,294.337891 290.070679,297.966370 
	C283.813293,298.392456 277.610962,298.814819 270.675354,299.287109 
	C271.609314,294.219177 272.404877,289.902252 273.200439,285.585358 
	C272.976807,285.483521 272.753174,285.381653 272.529541,285.279816 
	C270.154938,288.398865 268.042877,291.771179 265.339813,294.573334 
	C261.898560,298.140778 258.360168,301.872437 254.183533,304.416962 
	C246.317062,309.209381 239.101761,305.936981 237.066895,297.017731 
	C236.126434,292.895355 235.988861,288.589874 235.324997,283.001465 
	C233.773361,285.509369 232.913055,287.169586 231.805267,288.643860 
	C226.921936,295.142670 222.224716,301.811188 216.908295,307.939575 
	C214.861572,310.298889 211.530960,311.963409 208.465363,312.936523 
	C201.081055,315.280579 195.583038,311.902710 193.918015,304.314758 
	C191.556549,293.553009 194.126831,283.093475 196.496658,272.719513 
	C198.458282,264.132446 201.178802,255.719894 203.200821,247.144592 
	C203.667068,245.167252 202.653702,242.841034 202.321228,240.675354 
	C200.312607,241.151474 198.086517,241.224243 196.331451,242.170563 
	C186.566772,247.435654 180.367859,255.928421 177.265213,266.235931 
	C173.004593,280.390442 169.669678,294.823730 165.949280,309.140472 
	C165.491486,310.902161 165.102509,312.681763 164.593414,314.824371 
	C158.512909,315.257446 152.424377,315.691071 145.860352,316.158539 
	C146.047668,314.409943 146.027954,313.133331 146.335037,311.940857 
	C154.093231,281.814362 161.838730,251.684433 169.712448,221.588074 
	C171.259491,215.674789 173.325211,209.897186 175.455490,203.477539 
	C181.061478,189.632095 186.980392,176.725281 197.419342,166.122406 
	C198.465775,165.325867 199.179977,164.659500 199.912979,164.014496 
	C206.638062,158.096786 216.692139,158.811386 221.714066,165.973328 
	C221.878113,169.260300 221.994934,172.130981 221.977112,175.366714 
	C220.295715,180.823059 218.748932,185.914368 217.014862,191.316467 
	C214.413101,196.703506 211.998627,201.779739 209.356720,207.086288 
	C208.021057,209.464172 206.912827,211.611740 205.837097,213.763428 
	C205.869614,213.767548 205.810928,213.758179 205.550018,213.942688 
	C204.825989,215.072937 204.362885,216.018646 203.624146,217.158752 
	C201.247406,222.271988 196.092987,225.787186 196.007797,232.605133 
	C198.314026,231.733002 199.789291,231.009628 201.347946,230.618439 
	C205.187347,229.654831 209.035965,228.305817 212.934036,228.095139 
	C219.073334,227.763336 222.962997,231.223267 222.918106,237.335358 
	C222.882202,242.222626 221.653778,247.144730 220.594513,251.972336 
	C217.891586,264.290771 214.864944,276.539612 212.301666,288.885590 
	C211.936905,290.642487 212.917130,293.831940 214.203384,294.461639 
	C215.554337,295.123047 218.693558,294.100708 219.877167,292.769928 
	C223.601303,288.582672 227.769409,284.342438 229.970612,279.333832 
	C236.160614,265.249207 241.269958,250.693924 247.182861,236.481247 
	C249.814636,230.155334 252.775650,223.436707 260.783691,222.306915 
	C264.932343,221.721619 269.231628,222.203964 272.252350,222.203964 
	C266.957031,237.337875 261.397552,252.402496 256.505707,267.680878 
	C254.919250,272.635712 254.579254,278.152039 254.597641,283.408264 
	C254.613098,287.824005 256.909454,288.748169 260.450470,286.148621 
	C263.100983,284.202728 265.908813,282.004822 267.578003,279.267517 
	C275.701416,265.945984 284.093903,252.614822 286.754822,236.894516 
	C287.901886,230.117905 287.700073,223.112946 288.536682,216.147400 
	C290.776978,215.935104 292.608215,215.895767 294.403473,215.621216 
	C304.727692,214.042313 307.101074,215.741684 308.914856,226.338577 
	C310.109833,225.514206 310.616364,224.010223 311.603271,222.955902 
	C316.901978,217.295197 323.607697,214.049301 331.067291,212.407883 
	C343.190216,209.740372 349.537415,215.645676 347.255859,227.867996 
	C345.827698,235.518463 343.341949,242.965530 341.561859,250.558044 
	C339.971222,257.342438 338.485413,264.168091 337.413635,271.047272 
	C337.093658,273.100983 338.324127,275.396271 338.844238,277.580811 
	C340.884277,276.791473 343.575623,276.567902 344.843811,275.108032 
	C348.842682,270.504608 353.199280,265.864624 355.789215,260.458740 
	C360.784088,250.033157 364.669495,239.075607 369.005005,228.334595 
	C373.113770,218.155258 376.968231,207.744354 390.001190,205.931885 
M208.039642,191.524536 
	C210.078720,184.701630 212.238571,177.910553 214.052872,171.028366 
	C214.406921,169.685364 213.419205,167.988663 213.050369,166.455109 
	C211.508759,167.181381 209.426254,167.505325 208.529312,168.711121 
	C206.067734,172.020355 203.458984,175.462204 202.054291,179.273819 
	C195.743256,196.399048 189.823761,213.668686 183.800751,230.899399 
	C183.588379,231.506973 183.773773,232.253586 183.773773,232.935379 
	C184.292801,233.152527 184.811813,233.369659 185.330841,233.586807 
	C192.809769,219.802383 200.288696,206.017960 208.039642,191.524536 
M386.458191,301.054901 
	C382.033661,302.475677 377.471527,303.576172 373.220856,305.401794 
	C368.376160,307.482513 363.711884,310.048615 359.193512,312.775482 
	C358.134064,313.414886 357.253906,315.761688 357.600464,316.936920 
	C357.971466,318.194977 359.750519,319.401184 361.169434,319.887054 
	C362.656067,320.396088 364.519928,320.346497 366.089722,319.983124 
	C377.544952,317.331299 385.935760,310.619659 392.375122,299.753418 
	C390.049683,300.279236 388.637115,300.598663 386.458191,301.054901 
z"/>
<path fill="#0D8EDC" opacity="1.000000" stroke="none" 
	d="
M221.666840,165.557037 
	C216.692139,158.811386 206.638062,158.096786 199.912979,164.014496 
	C199.179977,164.659500 198.465775,165.325867 197.281158,165.754608 
	C194.324646,164.684845 191.833054,163.120453 189.334549,163.109360 
	C153.526093,162.950073 117.716621,163.033798 81.907623,162.955994 
	C77.603035,162.946655 73.299774,162.334885 68.995895,162.002350 
	C65.393890,157.887787 61.791889,153.773224 58.091011,149.330963 
	C60.957790,149.335373 63.923313,149.956482 66.889114,149.957809 
	C177.472412,150.007324 288.055756,150.042450 398.639008,149.954330 
	C415.603271,149.940811 432.569183,149.395935 449.528900,148.908020 
	C452.108582,148.833817 454.658600,147.728607 457.609283,147.049927 
	C455.158356,150.513916 452.320496,154.028259 448.876678,157.814636 
	C441.703552,162.802002 434.154510,161.985718 426.711914,162.019653 
	C360.910767,162.319626 295.109833,162.667557 229.308838,163.002274 
	C228.475708,163.006516 227.551437,162.793030 226.827637,163.079819 
	C225.057983,163.780960 223.381073,164.716080 221.666840,165.557037 
z"/>
<path fill="#E3F1FB" opacity="1.000000" stroke="none" 
	d="
M157.660019,200.839691 
	C154.712692,203.873749 151.949615,207.121078 148.760834,209.875610 
	C146.122833,212.154373 143.350922,212.208633 141.490662,207.694031 
	C140.641373,203.464066 140.273605,199.833054 139.387512,196.333298 
	C137.529449,188.994476 132.215271,185.840271 124.817589,187.521973 
	C119.396790,188.754272 115.189331,191.624420 112.977150,196.944397 
	C108.379478,204.675873 109.079842,212.847168 112.504776,220.421890 
	C115.336853,226.685410 119.667320,232.309052 123.617889,238.019730 
	C128.624680,245.257217 134.646790,251.884262 138.952194,259.497742 
	C151.737808,282.107178 141.371124,308.498505 116.762672,317.296234 
	C106.129196,321.097778 95.182732,321.500641 84.271317,319.279694 
	C74.493019,317.289398 68.813011,310.338348 66.243156,301.128052 
	C63.671177,291.910126 67.888687,284.554901 74.266991,278.306061 
	C77.035286,275.593964 79.500084,276.179871 80.671997,279.849640 
	C81.778610,283.314880 82.245560,286.984528 82.992584,290.564514 
	C84.645172,298.484344 88.276382,305.274994 94.716766,310.302856 
	C100.858017,315.097168 106.870888,314.945587 112.954056,310.119415 
	C125.827805,299.905975 128.512451,285.842346 119.384964,272.147461 
	C113.954552,263.999664 107.273209,256.695740 101.405533,248.825089 
	C98.235741,244.573257 95.267494,240.101379 92.779419,235.424911 
	C86.743408,224.079941 86.652733,212.444763 92.340591,200.920959 
	C94.243217,197.066162 96.711037,193.490326 99.307274,189.336060 
	C102.105949,186.644730 104.208321,183.876343 106.980789,182.251022 
	C122.995079,172.862869 138.139709,175.026382 153.440292,184.976913 
	C160.031021,189.263123 160.801193,193.663773 157.660019,200.839691 
z"/>
<path fill="#098CDB" opacity="1.000000" stroke="none" 
	d="
M217.202148,191.005676 
	C218.748932,185.914368 220.295715,180.823059 222.438614,175.366394 
	C286.254303,175.000687 349.473877,175.006805 412.693451,174.991348 
	C420.110596,174.989532 427.761780,176.111465 434.123138,170.651230 
	C434.783051,170.084839 436.029419,170.201721 437.003662,170.001556 
	C429.230164,176.276230 421.456665,182.550888 412.943085,188.955994 
	C405.791809,189.724289 399.383301,190.880829 392.968994,190.913773 
	C357.762268,191.094635 322.554077,190.972366 287.346588,191.051285 
	C284.408905,191.057861 281.472900,191.783585 278.244202,192.022827 
	C273.256836,188.813095 269.691010,191.682800 265.909912,193.780670 
	C263.614471,192.615326 261.465668,191.143311 259.295258,191.110794 
	C245.266846,190.900696 231.233734,191.004684 217.202148,191.005676 
z"/>
<path fill="#0B8DDC" opacity="1.000000" stroke="none" 
	d="
M437.296570,169.842407 
	C436.029419,170.201721 434.783051,170.084839 434.123138,170.651230 
	C427.761780,176.111465 420.110596,174.989532 412.693451,174.991348 
	C349.473877,175.006805 286.254303,175.000687 222.573242,175.001358 
	C221.994934,172.130981 221.878113,169.260300 221.714066,165.973328 
	C223.381073,164.716080 225.057983,163.780960 226.827637,163.079819 
	C227.551437,162.793030 228.475708,163.006516 229.308838,163.002274 
	C295.109833,162.667557 360.910767,162.319626 426.711914,162.019653 
	C434.154510,161.985718 441.703552,162.802002 448.634033,158.042709 
	C445.194733,161.893600 441.392120,165.788437 437.296570,169.842407 
z"/>
<path fill="#048ADB" opacity="1.000000" stroke="none" 
	d="
M390.102966,205.624054 
	C376.968231,207.744354 373.113770,218.155258 369.005005,228.334595 
	C364.669495,239.075607 360.784088,250.033157 355.789215,260.458740 
	C353.199280,265.864624 348.842682,270.504608 344.843811,275.108032 
	C343.575623,276.567902 340.884277,276.791473 338.844238,277.580811 
	C338.324127,275.396271 337.093658,273.100983 337.413635,271.047272 
	C338.485413,264.168091 339.971222,257.342438 341.561859,250.558044 
	C343.341949,242.965530 345.827698,235.518463 347.255859,227.867996 
	C349.537415,215.645676 343.190216,209.740372 331.067291,212.407883 
	C323.607697,214.049301 316.901978,217.295197 311.603271,222.955902 
	C310.616364,224.010223 310.109833,225.514206 308.914856,226.338577 
	C307.101074,215.741684 304.727692,214.042313 294.403473,215.621216 
	C292.608215,215.895767 290.776978,215.935104 288.276123,215.846222 
	C285.073975,215.073044 282.561676,214.089554 280.041718,214.069687 
	C255.296738,213.874496 230.550491,213.839676 205.804596,213.759308 
	C206.912827,211.611740 208.021057,209.464172 209.852020,207.111206 
	C225.862015,206.937485 241.149246,206.978302 256.436523,206.993546 
	C259.727692,206.996826 263.018951,206.907776 266.653198,206.944046 
	C269.598816,206.839890 272.201355,206.652939 275.107849,206.696182 
	C278.692871,206.951080 281.973969,206.996277 285.255035,206.997131 
	C308.374878,207.003204 331.496094,206.851227 354.614044,207.059662 
	C367.113037,207.172363 379.568817,207.660110 391.080322,201.519897 
	C391.650879,201.215591 392.358582,201.168457 393.002441,201.001587 
	C392.069885,202.439819 391.137329,203.878036 390.102966,205.624054 
z"/>
<path fill="#0B8DDB" opacity="1.000000" stroke="none" 
	d="
M158.068512,201.000351 
	C160.801193,193.663773 160.031021,189.263123 153.440292,184.976913 
	C138.139709,175.026382 122.995079,172.862869 106.980789,182.251022 
	C104.208321,183.876343 102.105949,186.644730 99.372681,188.997269 
	C93.699860,184.647217 88.228851,180.319077 83.032349,175.683228 
	C78.321831,171.480927 73.910484,166.943253 69.181564,162.277893 
	C73.299774,162.334885 77.603035,162.946655 81.907623,162.955994 
	C117.716621,163.033798 153.526093,162.950073 189.334549,163.109360 
	C191.833054,163.120453 194.324646,164.684845 196.957626,165.894699 
	C186.980392,176.725281 181.061478,189.632095 175.457794,203.101837 
	C171.673889,202.869492 168.190643,202.439758 164.709320,201.994858 
	C162.630310,201.729187 160.554337,201.439758 158.068512,201.000351 
z"/>
<path fill="#058ADB" opacity="1.000000" stroke="none" 
	d="
M393.365967,200.957794 
	C392.358582,201.168457 391.650879,201.215591 391.080322,201.519897 
	C379.568817,207.660110 367.113037,207.172363 354.614044,207.059662 
	C331.496094,206.851227 308.374878,207.003204 285.255035,206.997131 
	C281.973969,206.996277 278.692871,206.951080 275.361206,206.487473 
	C280.513550,201.616608 281.229462,198.537231 278.536102,192.175201 
	C281.472900,191.783585 284.408905,191.057861 287.346588,191.051285 
	C322.554077,190.972366 357.762268,191.094635 392.968994,190.913773 
	C399.383301,190.880829 405.791809,189.724289 412.602112,189.043732 
	C406.577301,192.972046 400.153412,196.943024 393.365967,200.957794 
z"/>
<path fill="#0A8DDC" opacity="1.000000" stroke="none" 
	d="
M113.255501,197.147614 
	C115.189331,191.624420 119.396790,188.754272 124.817589,187.521973 
	C132.215271,185.840271 137.529449,188.994476 139.387512,196.333298 
	C140.273605,199.833054 140.641373,203.464066 141.273102,207.459137 
	C132.046143,204.372040 122.790001,200.861420 113.255501,197.147614 
z"/>
<path fill="#0389DA" opacity="1.000000" stroke="none" 
	d="
M205.837097,213.763428 
	C230.550491,213.839676 255.296738,213.874496 280.041718,214.069687 
	C282.561676,214.089554 285.073975,215.073044 287.850433,215.910553 
	C287.700073,223.112946 287.901886,230.117905 286.754822,236.894516 
	C284.093903,252.614822 275.701416,265.945984 267.578003,279.267517 
	C265.908813,282.004822 263.100983,284.202728 260.450470,286.148621 
	C256.909454,288.748169 254.613098,287.824005 254.597641,283.408264 
	C254.579254,278.152039 254.919250,272.635712 256.505707,267.680878 
	C261.397552,252.402496 266.957031,237.337875 272.252350,222.203964 
	C269.231628,222.203964 264.932343,221.721619 260.783691,222.306915 
	C252.775650,223.436707 249.814636,230.155334 247.182861,236.481247 
	C241.269958,250.693924 236.160614,265.249207 229.970612,279.333832 
	C227.769409,284.342438 223.601303,288.582672 219.877167,292.769928 
	C218.693558,294.100708 215.554337,295.123047 214.203384,294.461639 
	C212.917130,293.831940 211.936905,290.642487 212.301666,288.885590 
	C214.864944,276.539612 217.891586,264.290771 220.594513,251.972336 
	C221.653778,247.144730 222.882202,242.222626 222.918106,237.335358 
	C222.962997,231.223267 219.073334,227.763336 212.934036,228.095139 
	C209.035965,228.305817 205.187347,229.654831 201.347946,230.618439 
	C199.789291,231.009628 198.314026,231.733002 196.007797,232.605133 
	C196.092987,225.787186 201.247406,222.271988 203.920532,217.005463 
	C204.932007,215.691254 205.371475,214.724716 205.810928,213.758179 
	C205.810928,213.758179 205.869614,213.767548 205.837097,213.763428 
z"/>
<path fill="#058ADB" opacity="1.000000" stroke="none" 
	d="
M266.310150,206.861252 
	C263.018951,206.907776 259.727692,206.996826 256.436523,206.993546 
	C241.149246,206.978302 225.862015,206.937485 210.079453,206.880890 
	C211.998627,201.779739 214.413101,196.703506 217.014862,191.316467 
	C231.233734,191.004684 245.266846,190.900696 259.295258,191.110794 
	C261.465668,191.143311 263.614471,192.615326 265.767273,194.121780 
	C262.808014,198.978012 263.680573,202.959686 266.310150,206.861252 
z"/>
<path fill="#0D8EDC" opacity="1.000000" stroke="none" 
	d="
M207.903625,191.879028 
	C200.288696,206.017960 192.809769,219.802383 185.330841,233.586807 
	C184.811813,233.369659 184.292801,233.152527 183.773773,232.935379 
	C183.773773,232.253586 183.588379,231.506973 183.800751,230.899399 
	C189.823761,213.668686 195.743256,196.399048 202.054291,179.273819 
	C203.458984,175.462204 206.067734,172.020355 208.529312,168.711121 
	C209.426254,167.505325 211.508759,167.181381 213.050369,166.455109 
	C213.419205,167.988663 214.406921,169.685364 214.052872,171.028366 
	C212.238571,177.910553 210.078720,184.701630 207.903625,191.879028 
z"/>
<path fill="#068BDB" opacity="1.000000" stroke="none" 
	d="
M386.841370,300.986481 
	C388.637115,300.598663 390.049683,300.279236 392.375122,299.753418 
	C385.935760,310.619659 377.544952,317.331299 366.089722,319.983124 
	C364.519928,320.346497 362.656067,320.396088 361.169434,319.887054 
	C359.750519,319.401184 357.971466,318.194977 357.600464,316.936920 
	C357.253906,315.761688 358.134064,313.414886 359.193512,312.775482 
	C363.711884,310.048615 368.376160,307.482513 373.220856,305.401794 
	C377.471527,303.576172 382.033661,302.475677 386.841370,300.986481 
z"/>
<path fill="#048ADA" opacity="1.000000" stroke="none" 
	d="
M205.550018,213.942688 
	C205.371475,214.724716 204.932007,215.691254 204.196167,216.811081 
	C204.362885,216.018646 204.825989,215.072937 205.550018,213.942688 
z"/>
<path fill="#0188DA" opacity="1.000000" stroke="none" 
	d="
M400.973602,267.960938 
	C401.099152,267.890686 401.405151,267.996277 401.616241,268.291687 
	C401.398895,268.366638 401.276459,268.251709 400.973602,267.960938 
z"/>
<path fill="#E1F0FA" opacity="1.000000" stroke="none" 
	d="
M266.653198,206.944046 
	C263.680573,202.959686 262.808014,198.978012 265.903870,194.480804 
	C269.691010,191.682800 273.256836,188.813095 278.244202,192.022827 
	C281.229462,198.537231 280.513550,201.616608 275.057281,206.257263 
	C272.201355,206.652939 269.598816,206.839890 266.653198,206.944046 
z"/>
</svg>