<svg xmlns="http://www.w3.org/2000/svg" viewBox="0 0 24 24" width="24" height="24"><path fill="#FFFFFF" d="M12 2.163c3.204 0 3.584.012 4.849.07 1.366.062 2.633.321 3.608 1.296.975.975 1.234 2.242 1.296 3.608.058 1.265.069 1.645.069 4.849s-.012 3.584-.07 4.849c-.062 1.366-.321 2.633-1.296 3.608-.975.975-2.242 1.234-3.608 1.296-1.265.058-1.645.069-4.849.069s-3.584-.012-4.849-.07c-1.366-.062-2.633-.321-3.608-1.296-.975-.975-1.234-2.242-1.296-3.608-.058-1.265-.069-1.645-.069-4.849s.012-3.584.07-4.849c.062-1.366.321-2.633 1.296-3.608.975-.975 2.242-1.234 3.608-1.296 1.265-.057 1.645-.069 4.849-.069zm0-2.163c-3.257 0-3.667.012-4.947.072-1.49.066-2.802.35-3.852 1.4-1.05 1.05-1.334 2.362-1.4 3.852C2.175 5.18 2.163 5.59 2.163 8.847s.012 3.667.072 4.947c.066 1.49.35 2.802 1.4 3.852 1.05 1.05 2.362 1.334 3.852 1.4 1.28.059 1.69.072 4.947.072s3.667-.012 4.947-.072c1.49-.066 2.802-.35 3.852-1.4 1.05-1.05 1.334-2.362 1.4-3.852.059-1.28.072-1.69.072-4.947s-.012-3.667-.072-4.947c-.066-1.49-.35-2.802-1.4-3.852-1.05-1.05-2.362-1.334-3.852-1.4-1.28-.059-1.69-.072-4.947-.072zm0 5.838c-3.398 0-6.162 2.764-6.162 6.162s2.764 6.162 6.162 6.162 6.162-2.764 6.162-6.162-2.764-6.162-6.162-6.162zm0 10.162c-2.206 0-4-1.794-4-4s1.794-4 4-4 4 1.794 4 4-1.794 4-4 4zm6.406-11.845c-.796 0-1.442-.646-1.442-1.442s.646-1.442 1.442-1.442 1.442.646 1.442 1.442-.646 1.442-1.442 1.442z"/></svg>
