<svg xmlns="http://www.w3.org/2000/svg" viewBox="0 0 24 24" width="24" height="24"><path fill="#FFFFFF" d="M22.225 0H1.771C.792 0 0 .774 0 1.729v20.542C0 23.227.792 24 1.771 24h20.451C23.207 24 24 23.227 24 22.271V1.729C24 .774 23.207 0 22.225 0zM7.078 20.452H3.556V9.042h3.522v11.41zM5.318 7.638c-1.145 0-2.064-.93-2.064-2.076 0-1.145.92-2.075 2.064-2.075 1.14 0 2.064.93 2.064 2.075-.001 1.145-.924 2.076-2.064 2.076zM20.451 20.452h-3.521v-5.603c0-1.336-.026-3.058-1.866-3.058-1.868 0-2.155 1.458-2.155 2.961v5.701H9.387V9.042h3.378v1.558h.047c.47-.891 1.62-1.83 3.335-1.83 3.566 0 4.224 2.349 4.224 5.403v6.279z"/></svg>
